#!OML:ASF I:\Actors\actors\Patient Classification 2\Patient 1\Session 1\actor1.ASF
:FULLY-SPECIFIED
:DEGREES
302
root -0.627617 18.6608 5.67603 -1.43015 -0.686391 -4.0877
lowerback 1.75039 2.41281 0.72825
upperback -0.415754 3.22928 -0.338296
thorax -1.34597 1.60619 -0.845248
lowerneck -14.5093 1.83989 3.85856
upperneck 34.2382 2.39767 -2.04823
head 14.2115 1.2832 -1.11439
rclavicle -2.34442e-014 -8.74653e-015
rhumerus -19.3288 47.2355 -84.8742
rradius 104.315
rwrist 17.829
rhand -17.0101 -42.7677
rfingers 7.12502
rthumb 9.22557 -72.5459
lclavicle -2.34442e-014 -8.74653e-015
lhumerus -29.2812 -20.3344 103.093
lradius 104.602
lwrist 75.0255
lhand -17.8079 -24.2518
lfingers 7.12502
lthumb 8.45572 5.55896
rfemur 0 0 0
rtibia 0
rfoot 0 0
rtoes 0
lfemur -3.28744 -5.39195 -10.5521
ltibia 23.8749
lfoot -22.709 11.0619
ltoes -55.6298
303
root -0.629095 18.6614 5.67144 -1.41439 -0.732807 -4.11885
lowerback 1.35671 2.34748 0.544694
upperback -0.120129 3.13732 -0.181909
thorax -0.842993 1.56528 -0.554413
lowerneck -14.7237 1.89741 3.8325
upperneck 33.9388 2.53033 -2.21431
head 14.1316 1.31006 -1.15216
rclavicle -1.13059e-014 1.59028e-014
rhumerus -18.2411 47.6577 -83.9751
rradius 104.265
rwrist 18.0056
rhand -16.5177 -43.0148
rfingers 7.12502
rthumb 9.70069 -72.7714
lclavicle -1.13059e-014 1.59028e-014
lhumerus -28.7109 -19.909 102.879
lradius 104.284
lwrist 75.3205
lhand -17.9038 -23.8248
lfingers 7.12502
lthumb 8.36314 5.98966
rfemur 0 0 0
rtibia 0
rfoot 0 0
rtoes 0
lfemur -3.30525 -5.47713 -10.5256
ltibia 23.8802
lfoot -22.7644 11.1761
ltoes -55.5737
304
root -0.629917 18.6619 5.66741 -1.42027 -0.740916 -4.08392
lowerback 1.42908 2.3383 0.469618
upperback -0.110538 3.12436 -0.158044
thorax -0.879193 1.55906 -0.491093
lowerneck -14.6975 1.90142 3.85354
upperneck 33.7373 2.55892 -2.31006
head 14.0381 1.3111 -1.18847
rclavicle 2.21086e-014 -1.51076e-014
rhumerus -18.0075 47.4613 -83.8974
rradius 104.493
rwrist 17.4538
rhand -15.9408 -43.1665
rfingers 7.12502
rthumb 10.2573 -72.8964
lclavicle 2.21086e-014 -1.51076e-014
lhumerus -28.7707 -19.6571 102.804
lradius 104.13
lwrist 75.7954
lhand -17.5965 -23.3553
lfingers 7.12502
lthumb 8.65972 6.44712
rfemur 0 0 0
rtibia 0
rfoot 0 0
rtoes 0
lfemur -3.30856 -5.51956 -10.5708
ltibia 23.8835
lfoot -22.7797 11.2192
ltoes -55.554
305
root -0.629399 18.662 5.66406 -1.43412 -0.711603 -4.01965
lowerback 1.50581 2.31493 0.388268
upperback -0.0952549 3.09204 -0.157234
thorax -0.911216 1.5432 -0.447396
lowerneck -14.6643 1.90865 3.91898
upperneck 33.543 2.58588 -2.42592
head 13.9479 1.3145 -1.24086
rclavicle -2.04375e-014 5.56597e-015
rhumerus -17.8377 47.0904 -83.9453
rradius 104.796
rwrist 16.6389
rhand -15.5331 -43.1582
rfingers 7.12502
rthumb 10.6505 -72.8682
lclavicle -2.04375e-014 5.56597e-015
lhumerus -28.9256 -19.5487 102.772
lradius 104.161
lwrist 75.895
lhand -17.498 -23.2042
lfingers 7.12502
lthumb 8.75476 6.59423
rfemur 0 0 0
rtibia 0
rfoot 0 0
rtoes 0
lfemur -3.30965 -5.48014 -10.6425
ltibia 23.881
lfoot -22.7261 11.2
ltoes -55.6212
306
root -0.628849 18.6625 5.66084 -1.42163 -0.686853 -4.03023
lowerback 1.54747 2.29457 0.372323
upperback -0.0789718 3.06489 -0.139071
thorax -0.919972 1.52974 -0.420829
lowerneck -14.6452 1.88517 3.92843
upperneck 33.3825 2.55027 -2.44592
head 13.8712 1.29666 -1.25501
rclavicle 4.30555e-014 1.11319e-014
rhumerus -17.7518 46.7073 -84.0337
rradius 105.237
rwrist 16.1835
rhand -15.6393 -43.1999
rfingers 7.12502
rthumb 10.5481 -72.9152
lclavicle 4.30555e-014 1.11319e-014
lhumerus -29.0808 -19.5664 102.785
lradius 104.31
lwrist 75.8185
lhand -17.4247 -23.2865
lfingers 7.12502
lthumb 8.82551 6.50894
rfemur 0 0 0
rtibia 0
rfoot 0 0
rtoes 0
lfemur -3.34213 -5.39813 -10.6168
ltibia 23.8767
lfoot -22.6839 11.1183
ltoes -55.6502
307
root -0.629088 18.663 5.65829 -1.40428 -0.673709 -4.06168
lowerback 1.59254 2.28333 0.400466
upperback -0.0765538 3.05053 -0.144955
thorax -0.941075 1.52234 -0.444138
lowerneck -14.5771 1.85039 3.89472
upperneck 33.2015 2.48004 -2.37238
head 13.7714 1.27126 -1.22967
rclavicle -9.91439e-015 3.18055e-015
rhumerus -17.8591 46.2343 -84.1918
rradius 105.891
rwrist 16.0995
rhand -16.1227 -43.0907
rfingers 7.12502
rthumb 10.0818 -72.8291
lclavicle -9.91439e-015 3.18055e-015
lhumerus -29.1712 -19.6396 102.78
lradius 104.446
lwrist 75.774
lhand -17.2756 -23.2821
lfingers 7.12502
lthumb 8.96939 6.5072
rfemur 0 0 0
rtibia 0
rfoot 0 0
rtoes 0
lfemur -3.38399 -5.35659 -10.5658
ltibia 23.8814
lfoot -22.6725 11.0415
ltoes -55.611
308
root -0.628436 18.6632 5.65677 -1.38982 -0.660902 -4.05707
lowerback 1.64609 2.2869 0.434537
upperback -0.0870116 3.05572 -0.188383
thorax -0.977572 1.52451 -0.510239
lowerneck -14.4589 1.79157 3.81015
upperneck 33.0133 2.35868 -2.20275
head 13.6538 1.23051 -1.16554
rclavicle 6.59095e-015 1.51076e-014
rhumerus -18.216 45.7117 -84.4123
rradius 106.771
rwrist 15.9037
rhand -16.9687 -42.9337
rfingers 7.12502
rthumb 9.26555 -72.7101
lclavicle 6.59095e-015 1.51076e-014
lhumerus -29.2117 -19.7573 102.791
lradius 104.527
lwrist 75.8844
lhand -17.2635 -23.1921
lfingers 7.12502
lthumb 8.98106 6.59673
rfemur 0 0 0
rtibia 0
rfoot 0 0
rtoes 0
lfemur -3.41474 -5.45391 -10.5822
ltibia 23.8935
lfoot -22.7198 11.1048
ltoes -55.5306
309
root -0.626571 18.6634 5.65604 -1.34714 -0.656851 -4.06951
lowerback 1.64983 2.30271 0.443238
upperback -0.0967555 3.077 -0.189508
thorax -0.988883 1.53503 -0.517168
lowerneck -14.3704 1.68624 3.59161
upperneck 32.8863 2.17599 -1.93701
head 13.5647 1.15921 -1.05005
rclavicle -5.43552e-016 -1.51076e-014
rhumerus -18.6626 45.2666 -84.5216
rradius 107.832
rwrist 15.5057
rhand -17.7705 -43.0233
rfingers 7.12502
rthumb 8.49179 -72.8325
lclavicle -5.43552e-016 -1.51076e-014
lhumerus -29.1936 -19.8442 102.869
lradius 104.483
lwrist 75.955
lhand -17.2682 -23.309
lfingers 7.12502
lthumb 8.9765 6.47999
rfemur 0 0 0
rtibia 0
rfoot 0 0
rtoes 0
lfemur -3.46574 -5.5789 -10.5884
ltibia 23.9063
lfoot -22.7879 11.209
ltoes -55.4673
310
root -0.625101 18.6644 5.65547 -1.28821 -0.645837 -4.10013
lowerback 1.59828 2.31344 0.422901
upperback -0.0903832 3.091 -0.159067
thorax -0.956084 1.54234 -0.472591
lowerneck -14.2596 1.57304 3.35129
upperneck 32.6888 2.02372 -1.77516
head 13.4435 1.08408 -0.96718
rclavicle 5.04665e-014 1.03368e-014
rhumerus -19.1047 44.8881 -84.5121
rradius 108.94
rwrist 15.2926
rhand -18.242 -43.2197
rfingers 7.12502
rthumb 8.03681 -73.0469
lclavicle 5.04665e-014 1.03368e-014
lhumerus -29.1029 -19.8866 102.907
lradius 104.337
lwrist 75.9898
lhand -17.3366 -23.6119
lfingers 7.12502
lthumb 8.9105 6.17994
rfemur 0 0 0
rtibia 0
rfoot 0 0
rtoes 0
lfemur -3.53896 -5.62009 -10.5591
ltibia 23.921
lfoot -22.8253 11.2344
ltoes -55.4652
311
root -0.624762 18.6661 5.65378 -1.25253 -0.60823 -4.12287
lowerback 1.58761 2.30518 0.385861
upperback -0.08567 3.07943 -0.138908
thorax -0.948465 1.53683 -0.430523
lowerneck -14.0199 1.45665 3.19641
upperneck 32.3041 1.90789 -1.80568
head 13.2198 1.0094 -0.969
rclavicle 2.51866e-014 1.19271e-014
rhumerus -19.6158 44.639 -84.464
rradius 109.992
rwrist 15.0943
rhand -18.388 -43.4476
rfingers 7.12502
rthumb 7.89585 -73.2802
lclavicle 2.51866e-014 1.19271e-014
lhumerus -29.0004 -19.9039 102.817
lradius 104.2
lwrist 76.1404
lhand -17.603 -23.6866
lfingers 7.12502
lthumb 8.65347 6.11602
rfemur 0 0 0
rtibia 0
rfoot 0 0
rtoes 0
lfemur -3.59289 -5.64637 -10.5301
ltibia 23.9341
lfoot -22.8481 11.2031
ltoes -55.4371
